<?xml version="1.0" encoding="utf-8"?>
<!-- Generator: Adobe Illustrator 23.0.5, SVG Export Plug-In . SVG Version: 6.00 Build 0)  -->
<svg version="1.1" id="Layer_2" xmlns="http://www.w3.org/2000/svg" xmlns:xlink="http://www.w3.org/1999/xlink" x="0px" y="0px"
	 viewBox="0 0 1227 372.81" style="enable-background:new 0 0 1227 372.81;" xml:space="preserve">
<style type="text/css">
	.st0{fill:none;stroke:#F40303;stroke-width:10;}
	.st1{fill:#3877F4;}
	.st2{opacity:0.75;}
	.st3{fill:#4D9BF5;}
</style>
<g>
	<path class="st0" d="M0,1085.61"/>
</g>
<g>
	<g>
		<path class="st1" d="M1189.44,156.32c-7.61-5.56-15.49-11.3-31.23-14.95c-27.76-6.43-45.81,4.65-63.27,15.36
			c-7.45,4.57-14.48,8.89-22.21,11.84c-22.58,8.64-37.21-2.89-54.16-16.24c-0.93-0.73-1.87-1.47-2.8-2.2
			c-3.03-2.37-5.72-4.58-8.32-6.71c-12.63-10.35-21.75-17.83-42.86-21.29c-9.97-1.64-26.28-34.13-38.19-57.86
			c-14.52-28.92-27.05-53.9-39.54-58.51c-4.42-1.63-8.98-1.24-13.19,1.11c-16.51,9.24-26.25,48.09-33.61,84.88l-0.13,0.67
			c-0.42,2.12-1.01,5.19-1.73,9.02c-3.54,18.69-10.9,57.59-20.16,91.08c-15.42,55.72-25.54,58.67-27.49,58.67c-0.01,0-0.02,0-0.03,0
			c-2.93-0.04-9.63-2.96-21.55-21.99c-8.73-13.94-17.7-32.38-25.62-48.65c-11.94-24.54-19.59-39.84-26.15-44.93
			c-11.14-8.64-35-1-67.49,10.72c-13.73,4.95-26.7,9.63-32.72,9.76c-0.02,0-0.04,0-0.06,0c-2.05,0-7.78-2.18-17.74-21.67
			c-7.46-14.59-14.96-33.99-22.89-54.53c-3.95-10.21-8.03-20.77-12.1-30.67C544.62,1.67,527.97,1.42,523.5,2.39
			c-12.23,1.49-26.8,27.86-49.15,70.79c-10.03,19.27-23.76,45.65-28.69,48.31c-6.44,3.48-31.3,0.41-51.28-2.05
			c-20.35-2.51-39.57-4.89-49.88-2.75c-13.18,2.74-27.79,19.17-41.91,35.06c-9.83,11.06-20,22.5-26.8,25.53
			c-3.94,1.75-7.82,2.6-11.93,3.5c-13.5,2.95-27.46,5.99-44.09,38.31c-21.12,41.05-40.04,49.12-57.34,51.74
			c-12.11,1.83-26.73,12.19-40.88,22.21C110.46,300.88,99,309,92.42,309.94c-9.48,1.33-19.14-14.83-26.53-44.39
			c-5.42-21.7-41.52-157.57-41.91-159.03C18.75,88.22,8.75,79.01,0,74.36v11.91c5.49,4.28,11.03,11.32,14.34,22.9
			c0.36,1.37,36.44,137.17,41.85,158.8c8.64,34.57,20.39,52.06,34.96,52.06c0.89,0,1.78-0.06,2.69-0.19
			c8.97-1.28,20.33-9.33,33.49-18.66c12.58-8.91,26.83-19.01,36.59-20.48c18.97-2.86,41.5-11.88,64.74-57.05
			c14.47-28.13,25.06-30.44,37.33-33.11c4.42-0.96,8.99-1.96,13.86-4.13c8.78-3.9,19.19-15.62,30.21-28.02
			c12.43-13.99,26.53-29.85,36.47-31.91c8.69-1.8,27.97,0.58,46.62,2.88c29.87,3.69,48.63,5.59,57.26,0.93
			c7.27-3.93,16.72-21.6,32.81-52.49c8.32-15.99,16.93-32.52,24.8-45.29c11.81-19.17,16.19-20.14,16.64-20.19l0.23,0.26l0.71-0.36
			c1.69,0.16,13.65,2.68,29.34,40.84c4.03,9.8,8.09,20.31,12.02,30.47c19.77,51.15,32.79,82.59,49.93,82.59c0.1,0,0.2,0,0.3,0
			c7.66-0.17,20.75-4.89,35.9-10.35c20.04-7.23,50.32-18.15,57.97-12.22c5.05,3.91,14.32,22.97,23.29,41.4
			c21.64,44.48,38.32,75.99,56.01,76.26c0.08,0,0.15,0,0.23,0c8.81,0,20.97-7.76,37.08-66c9.38-33.88,16.79-73.06,20.35-91.88
			c0.72-3.79,1.29-6.82,1.71-8.92l0.13-0.67c3.46-17.28,13.97-69.88,28.69-78.12c1.67-0.94,3.17-1.08,4.85-0.45
			c8.78,3.23,22.8,31.16,34.06,53.61c18.98,37.82,31.52,60.95,45.51,63.24c18.47,3.03,25.87,9.1,38.14,19.15
			c2.64,2.17,5.38,4.41,8.5,6.85c0.93,0.73,1.85,1.45,2.77,2.18c16.89,13.3,36.03,28.39,63.92,17.73
			c8.6-3.29,16.36-8.05,23.87-12.66c16.46-10.1,32.01-19.64,55.78-14.14c13.75,3.18,20.47,8.09,27.59,13.28
			c9.46,6.9,19.18,13.99,43.45,17.49v-10.1C1206.29,168.6,1198.05,162.6,1189.44,156.32z M525.82,12.11L525.82,12.11L525.82,12.11z"
			/>
	</g>
	<g class="st2">
		<path class="st3" d="M1216.32,230.76c-7.71-5.09-24.81-29.96-37.3-48.12c-8.05-11.7-14.99-21.8-19.12-26.43
			c-5.61-6.29-12.04-9.5-19.12-9.55c-0.05,0-0.1,0-0.15,0c-10.09,0-20.81,6.35-32.76,19.41c-18.7,20.45-39.93,34.95-55.41,37.85
			c-13.96,2.62-27.77,18.98-42.22,50.02c-0.58,1.26-1.27,2.78-2.06,4.52c-6.78,15-27.4,60.65-44.92,56.39
			c-3.3-0.81-10.43-5.86-21.18-30.67c-7.56-17.45-14.53-39.07-20.13-56.45c-4.41-13.7-7.9-24.51-10.65-30.4
			c-6.59-14.08-19.35-38.14-30.67-41.06c-4.39-1.13-14.58-11.83-21.21-26.68c-1.18-2.63-3.63-8.75-6.75-16.48
			c-7.1-17.65-17.84-44.33-28.31-67.24C806.05,5.8,799.58,1.31,794.95,0.24c-1.88-0.43-4.81-0.49-8.12,1.72
			c-16.07,10.7-29.96,73.18-31.84,84.23c-0.46,2.7-1.38,8.48-2.66,16.48c-4.29,26.85-13.21,82.74-22.37,132.4
			c-15.4,83.53-21.72,96.17-23.35,98.05c-6.15,4.68-24.98-7.01-41.61-17.33c-10.79-6.69-21.94-13.61-33.14-18.85
			c-28.85-13.49-56.76,15.49-73.43,32.81c-4.07,4.23-7.58,7.88-10.02,9.78c-8.61,6.71-19.85,8.43-31.74,10.25
			c-4.45,0.68-9.06,1.38-13.7,2.37c-2.2,0.47-4.76,1.03-7.58,1.65c-17.51,3.86-50.11,11.04-63.21,8.51
			c-0.77-0.18-5.27-2.13-17.82-22.46c-8.23-13.34-17.26-30.18-25.21-45.04c-14.01-26.15-19.27-35.53-23.23-38
			c-11.35-7.09-80.27-10.38-80.96-10.41c-15.39-0.64-31.14-2.39-54.48-16.62c-23.58-14.37-40.89-24.07-65.77-27.81
			c-9.52-1.43-18.59-12.2-28.19-23.6c-11.42-13.56-23.24-27.59-39.28-30.75c-29.13-5.75-50.3,24.85-67.3,49.43
			c-1.18,1.71-2.35,3.4-3.5,5.04C17.42,214.97,7.08,219.69,0,221.39v10.2c9.05-1.68,22.95-7.08,34.62-23.79
			c1.16-1.66,2.33-3.36,3.53-5.08c16.14-23.34,34.45-49.79,57.15-45.31c12.59,2.48,23.25,15.14,33.56,27.38
			c10.86,12.89,21.11,25.06,34.36,27.05c23.08,3.46,38.84,12.3,62.05,26.46c25.35,15.46,43.18,17.4,59.26,18.07
			c23.22,0.97,69.42,5.04,75.96,8.83c2.82,2.55,11.85,19.42,19.83,34.32c22.72,42.41,38.47,70.38,49.94,72.6
			c2.51,0.49,5.47,0.7,8.75,0.7c16.5,0,41.2-5.44,58.52-9.26c2.8-0.62,5.33-1.17,7.5-1.63c4.36-0.92,8.82-1.61,13.13-2.27
			c12.64-1.93,25.72-3.93,36.38-12.25c3-2.34,6.56-6.04,11.07-10.73c15.78-16.39,39.63-41.15,61.99-30.69
			c10.67,4.99,21.57,11.75,32.1,18.29c22.36,13.87,41.67,25.85,53.23,16.55c2.9-2.33,8.93-7.18,26.5-102.18
			c9.29-50.24,18.37-107.09,22.73-134.41c1.27-7.97,2.19-13.73,2.64-16.37c1.83-10.74,6.6-30.27,12.17-46.82
			c8.92-26.52,14.62-30.45,15.72-30.98c1.58,1.09,7.69,7.23,23.3,41.61c10.14,22.33,20.51,48.11,27.38,65.16
			c3.28,8.14,5.64,14.02,6.89,16.83c6.14,13.75,17.98,29.74,27.84,32.29c3.4,0.88,12.63,11.09,24.11,35.62
			c2.49,5.32,6.06,16.4,10.19,29.23c15.67,48.65,30.13,89.29,48.45,93.77c1.6,0.39,3.18,0.58,4.75,0.58
			c23.4,0,42.28-41.8,51.66-62.56c0.77-1.7,1.44-3.19,2.01-4.42c16.8-36.08,29.14-43.31,35-44.41
			c17.76-3.33,40.55-18.63,60.94-40.93c9.81-10.73,18.35-16.16,25.38-16.16c0.03,0,0.06,0,0.09,0c4.19,0.03,8.02,2.06,11.72,6.2
			c3.7,4.16,10.81,14.5,18.34,25.44c14.39,20.92,30.7,44.64,40.03,50.8c5.65,3.73,11.32,6.02,16.19,7.43v-10.49
			C1223.65,234.87,1219.98,233.18,1216.32,230.76z M792.45,9.9L792.45,9.9L792.45,9.9z"/>
	</g>
</g>
</svg>
