<svg width="32" height="32" xmlns="http://www.w3.org/2000/svg">
 <title/>
 <desc/>

 <g>
  <title>background</title>
  <rect fill="none" id="canvas_background" height="402" width="582" y="-1" x="-1"/>
 </g>
 <g>
  <title>Layer 1</title>
  <g id="Page-1" fill-rule="evenodd" fill="none">
   <g id="icon-55-document-text" fill="#929292">
    <path fill="#ffffff" id="document-text" d="m19,3l-9.99147,0c-1.10928,0 -2.00853,0.898338 -2.00853,2.00733l0,22.98534c0,1.108618 0.890925,2.00733 1.997422,2.00733l15.005156,0c1.103146,0 1.997422,-0.890925 1.997422,-1.997422l0,-17.002578l-4.994081,0c-1.107838,0 -2.005919,-0.886706 -2.005919,-1.998101l0,-6.001899l0,0zm1,0l0,5.997071c0,0.553902 0.450975,1.002929 0.990778,1.002929l5.009222,0l-6,-7l0,0zm-10,7l0,1l7,0l0,-1l-7,0l0,0zm0,-3l0,1l7,0l0,-1l-7,0l0,0zm0,6l0,1l13,0l0,-1l-13,0l0,0zm0,3l0,1l13,0l0,-1l-13,0l0,0zm0,3l0,1l13,0l0,-1l-13,0l0,0zm0,3l0,1l13,0l0,-1l-13,0l0,0zm0,3l0,1l13,0l0,-1l-13,0l0,0z"/>
   </g>
  </g>
 </g>
</svg>