<svg width="1024" height="1024" xmlns="http://www.w3.org/2000/svg">

 <g>
  <title>background</title>
  <rect fill="none" id="canvas_background" height="402" width="582" y="-1" x="-1"/>
 </g>
 <g>
  <title>Layer 1</title>
  <path fill="#14181e" id="svg_1" d="m512,128c-212.077,0 -384,171.923 -384,384s171.923,384 384,384c25.953,0 51.303,-2.582 75.812,-7.49c-9.879,-4.725 -10.957,-40.174 -1.188,-60.385c10.875,-22.5 45,-79.5 11.25,-98.625s-24.375,-27.75 -45,-49.875s-12.19,-25.451 -13.5,-31.125c-4.5,-19.5 19.875,-48.75 21,-51.75s1.125,-14.25 0.75,-17.625s-15.374,-12.375 -19.124,-12.75s-5.625,6 -10.875,6.375s-28.125,-13.875 -33,-17.625s-7.125,-12.75 -13.875,-19.5s-7.5,-1.5 -18,-5.625s-44.25,-16.5 -70.125,-27s-28.125,-25.219 -28.5,-35.625s-15.75,-25.5 -22.961,-36.375c-7.209,-10.875 -8.539,-25.875 -11.164,-22.5s13.5,42.75 10.875,43.875s-8.25,-10.875 -15.75,-20.625s7.875,-4.5 -16.125,-51.75s7.5,-71.344 9,-96s20.25,9 10.5,-6.75s0.75,-48.75 -6.75,-60.75s-50.25,13.5 -50.25,13.5c1.125,-11.625 37.5,-31.5 63.75,-49.875s42.281,-4.125 63.375,2.625s22.5,4.5 15.375,-2.25s3,-10.125 19.5,-7.5s21,22.5 46.125,20.625s2.625,4.875 6,11.25s-3.75,5.625 -20.25,16.875s0.375,11.25 29.625,32.625s20.25,-14.25 17.25,-30s21.375,-3.375 21.375,-3.375c18,12 14.674,0.66 27.799,4.785s48.701,34.215 48.701,34.215c-44.625,24.375 -16.5,27 -9,32.625s-15.375,16.5 -15.375,16.5c-9.375,-9.375 -10.875,0.375 -16.875,3.75s-0.375,12 -0.375,12c-31.031,4.875 -24,37.5 -23.625,45.375s-19.875,19.875 -25.125,31.125s13.5,35.625 3.75,37.125s-19.5,-36.75 -72,-22.5c-15.828,4.297 -51,22.5 -32.25,59.625s49.875,-10.5 60.375,-5.25s-3,28.875 -0.75,29.25s29.625,1.031 31.125,33s41.625,29.25 50.25,30s37.5,-23.625 41.625,-24.75s20.625,-15 56.625,5.625s54.375,17.625 66.75,26.25s3.75,25.875 15.375,31.5s58.125,-1.875 69.75,17.25s-48,115.125 -66.75,125.625s-27.375,34.5 -46.125,49.875s-45,34.406 -69.75,49.125c-21.908,13.027 -25.85,36.365 -35.609,43.732c171.855,-38.177 300.359,-191.507 300.359,-374.857c0,-212.077 -171.923,-384 -384,-384zm90,360.375c-5.25,1.5 -16.125,11.25 -42.75,-4.5s-45,-12.75 -47.25,-15.375c0,0 -2.25,-6.375 9.375,-7.5c23.871,-2.311 54,22.125 60.75,22.5s10.125,-6.75 22.125,-2.883c12,3.863 3,6.258 -2.25,7.758zm-125.625,-322.125c-2.615,-1.902 2.166,-4.092 5.016,-7.875c1.645,-2.186 0.425,-5.815 2.484,-7.875c5.625,-5.625 33.375,-13.5 27.949,1.875c-5.424,15.375 -31.324,16.875 -35.449,13.875zm67.125,48.75c-9.375,-0.375 -31.443,-2.707 -27.375,-6.75c15.844,-15.75 -6,-20.25 -19.5,-21.375s-19.125,-8.625 -12.375,-9.375s33.75,0.375 38.25,4.125s28.875,13.5 30.375,20.625s0,13.125 -9.375,12.75zm81.375,-2.625c-7.5,6 -45.24,-21.529 -52.5,-27.75c-31.5,-27 -48.375,-18 -54.99,-22.5c-6.617,-4.5 -4.26,-10.5 5.865,-19.5s38.625,3 55.125,4.875s35.625,14.625 36,29.781c0.375,15.155 18,29.094 10.5,35.094z"/>
 </g>
</svg>