<svg width="30" height="30" xmlns="http://www.w3.org/2000/svg">

 <g>
  <title>background</title>
  <rect fill="none" id="canvas_background" height="402" width="582" y="-1" x="-1"/>
 </g>
 <g>
  <title>Layer 1</title>
  <polygon fill="#ffffff" id="svg_1" points="11,22 8,19 8,14 16,22 "/>
  <path fill="#ffffff" id="svg_2" d="m26.979,3.021c0,0 -8.979,-0.021 -15.979,6.979c-2.99,2.99 -3,8 -1,10s7.01,1.99 10,-1c7,-7 6.979,-15.979 6.979,-15.979zm-9.979,7.979c0,-1.105 0.895,-2 2,-2c1.105,0 2,0.895 2,2s-0.895,2 -2,2c-1.105,0 -2,-0.895 -2,-2z"/>
  <path fill="#ffffff" id="svg_3" d="m18.811,18.676c0,0 0.757,3.784 -0.757,5.297c-2.27,2.27 -6.054,3.027 -6.054,3.027l1,-7l5.811,-1.324z"/>
  <path fill="#ffffff" id="svg_4" d="m11.324,11.189c0,0 -3.784,-0.757 -5.297,0.757c-2.27,2.27 -3.027,6.054 -3.027,6.054l7,-1l1.324,-5.811z"/>
  <path fill="#ffffff" id="svg_5" d="m9.542,22.34c-0.045,0.064 -0.072,0.138 -0.13,0.195c-0.975,0.975 -2.438,0.488 -2.438,0.488s-0.488,-1.463 0.488,-2.438c0.058,-0.058 0.131,-0.084 0.195,-0.13l-0.457,-0.458c-0.38,0.1 -0.741,0.29 -1.038,0.587c-1.366,1.366 -1.149,4.4 -1.149,4.4s3.016,0.235 4.4,-1.149c0.297,-0.297 0.487,-0.658 0.587,-1.038l-0.458,-0.457z"/>
 </g>
</svg>