<svg width="800" height="800" xmlns="http://www.w3.org/2000/svg"><g id="Page-1" stroke="none" stroke-width="1" fill="none" fill-rule="evenodd"><g id="signet" fill-rule="nonzero"><rect id="Rectangle" fill="#ffd073" x="0" y="0" width="800" height="800" rx="240"/><g id="Group" transform="translate(138 139)"><path d="M504 306c0-10.818-1.909-21.19-5.407-30.798C522.752 266.39 540 243.21 540 216c0-34.794-28.206-63-63-63a62.828 62.828 0 00-23.422 4.498C417.308 85.437 342.678 36 256.5 36 134.721 36 36 134.721 36 256.5v180.41c0 13.363 6.682 20.045 13.364 20.045 13.363 0 13.363-6.682 51.217-44.54C140.484 452.319 195.61 477 256.5 477c69.367 0 131.253-32.031 171.673-82.11C471.145 388.093 504 350.883 504 306zM256.5 513c-56.338 0-109.842-18.28-153.592-51.045-.976 1.055-4.093 4.426-4.994 5.395-10.294 11.083-14.877 15.35-23.254 19.72-8.15 4.253-16.265 5.885-25.296 5.885C19.347 492.955 0 467.159 0 436.909V256.5C0 114.839 114.839 0 256.5 0c88.408 0 168.767 45.145 215.376 117.131 1.702-.087 3.41-.131 5.124-.131 54.676 0 99 44.324 99 99 0 30.61-14.021 58.567-36.672 76.933.446 4.32.672 8.68.672 13.067 0 57.347-38.54 106.544-92.24 121.422C399.571 481.339 330.6 513 256.5 513z" id="outline" fill="#2a0000"/><circle id="left-cheek" fill="#fbbf85" cx="414" cy="306" r="90"/><g id="left-eye" transform="translate(414 153)"><circle id="sclera" fill="#fff" cx="63" cy="63" r="63"/><circle id="pupilla" fill="#2a0000" cx="90" cy="63" r="18"/></g><path d="M36 436.91c0 13.363 6.682 20.045 13.364 20.045 13.363 0 13.363-6.682 51.217-44.54C140.484 452.319 195.61 477 256.5 477 378.279 477 477 378.279 477 256.5S378.279 36 256.5 36 36 134.721 36 256.5v180.41z" id="body" fill="#fbbf85"/><g id="right-eye" transform="translate(305.75 153)"><circle id="sclera" fill="#fff" cx="67.75" cy="67.5" r="67.5"/><circle id="pupilla" fill="#2a0000" cx="85.75" cy="67.5" r="22.5"/></g><circle id="right-cheek" fill="#fbbf85" cx="292.5" cy="310.5" r="94.5"/><ellipse id="mouth" fill="#2a0000" transform="rotate(20 416.25 357.75)" cx="416.25" cy="357.75" rx="13.5" ry="22.5"/></g></g></g></svg>